<?xml version="1.0" encoding="UTF-8"?>
<!DOCTYPE svg PUBLIC "-//W3C//DTD SVG 1.1//EN" "http://www.w3.org/Graphics/SVG/1.1/DTD/svg11.dtd">
<!-- Creator: CorelDRAW 2018 (64-Bit) -->
<svg xmlns="http://www.w3.org/2000/svg" xml:space="preserve" width="1826px" height="610px" version="1.1" style="shape-rendering:geometricPrecision; text-rendering:geometricPrecision; image-rendering:optimizeQuality; fill-rule:evenodd; clip-rule:evenodd"
viewBox="0 0 2178.84 727.6"
 xmlns:xlink="http://www.w3.org/1999/xlink">
 <defs>
  <style type="text/css">
   <![CDATA[
    .fil0 {fill:#00253F}
    .fil3 {fill:#0090D4}
    .fil1 {fill:#E94983}
    .fil2 {fill:#EA560D}
   ]]>
  </style>
 </defs>
 <g id="Plan_x0020_1">
  <metadata id="CorelCorpID_0Corel-Layer"/>
  <path class="fil0" d="M154.76 114.09c-4.6,-3.77 -5.34,-9.11 -2.39,-14.35 20.14,-37.82 1.84,-92.01 -57.97,-97.9 -4.05,-0.28 -9.85,-0.28 -19.97,-0.28l-69.92 0c-2.67,0 -4.51,1.94 -4.51,4.51l0 233.98c0,2.67 1.84,4.51 4.51,4.51l99.46 0c79.77,0 96.7,-91.73 50.79,-130.47l0 0zm-50.79 91.64l-52.35 0c-5.34,0 -9.85,-4.23 -9.85,-9.85l0 -50.23 0 -58.7 0 -37.26c0,-5.25 4.23,-9.85 9.85,-9.85l32.93 0c41.69,0 43.89,51.89 5.62,56.4 -3.5,0.28 -9.85,0.28 -19.42,0.28l-1.38 0c-1.84,0 -3.4,1.56 -3.4,3.4l0 32.48c0,1.84 1.56,3.4 3.4,3.4l34.6 0c44.07,0 44.07,69.93 0,69.93l0 0z"/>
  <path class="fil0" d="M594.46 200.49c-1.38,-2.21 -3.77,-2.4 -5.89,-0.83 -8.18,6.9 -22.35,13.8 -44.62,13.8 -109.31,0 -109.31,-170.95 0,-170.95 18.31,0 34.04,6.9 44.35,14.63 2.39,1.84 4.51,1.38 6.44,-1.02l18.86 -26.86c1.29,-2.12 1.29,-4.79 -1.1,-6.35 -21.26,-12.24 -44.35,-21.81 -68.83,-21.81 -83.72,0 -125.22,63.21 -125.22,126.79 0,63.21 41.77,126.79 125.22,126.79 30.27,0 50.24,-7.18 69.1,-21.81 2.12,-1.28 2.39,-4.23 1.11,-6.34l-19.42 -26.04 0 0z"/>
  <path class="fil0" d="M837.45 225.42c-3.22,-4.51 -2.66,-10.31 1.02,-15.09 16.01,-20.52 26.04,-47.66 26.04,-81.7 0,-84.74 -62.48,-127.07 -124.95,-127.07 -62.75,0 -125.22,42.33 -125.22,127.07 0,84.83 62.47,127.15 125.22,127.15 11.22,0 21.8,-1.38 32.75,-4.32 2.67,-0.74 3.68,-2.4 2.12,-4.79l-20.52 -29.72c-1.29,-2.11 -4.23,-3.49 -6.9,-3.22 -2.39,0.28 -4.78,0 -7.17,0 -42.24,0 -84.28,-28.15 -84.28,-85.1 0,-56.86 42.04,-85.02 84.28,-85.02 39.65,0 79.49,24.94 84,75.26 0.83,5.8 0.27,13.53 0,19.32 -0.28,7 -6.63,39.38 -16.2,39.38 -1.83,0 -3.77,-1.28 -5.61,-3.68l-14.9 -21.34c-1.84,-2.4 -3.68,-2.58 -6.35,-1.02l-23.37 18.31c-2.12,1.94 -2.39,4.51 -1.1,6.72l64.86 90.63c1.94,2.11 4.51,3.4 7.18,3.4l35.88 0c2.67,0 3.5,-1.29 2.21,-3.4l-28.98 -41.77 -0.01 0z"/>
  <path class="fil0" d="M1088.36 1.56l-32.66 0c-1.38,0 -2.39,0.56 -3.22,1.38 -0.83,0.74 -1.29,1.84 -1.29,3.13l0 146.3c0,11.68 -2.67,21.52 -7.18,29.71 0,0.28 -0.27,0.28 -0.27,0.56 -0.83,1.28 -1.66,2.66 -2.4,3.68 -0.27,0.55 -0.55,0.83 -0.82,1.38 -0.56,0.82 -1.29,1.56 -2.12,2.39 -0.55,0.55 -1.1,1.29 -1.56,1.84 -0.56,0.55 -1.11,1.1 -1.66,1.56 -0.74,0.83 -1.56,1.66 -2.67,2.4 -0.28,0.27 -0.46,0.55 -0.74,0.82 -1.1,0.83 -2.11,1.84 -3.49,2.67 0,0 -0.28,0 -0.28,0.28 -6.9,4.78 -14.9,7.73 -23.09,9.02 -0.28,0 -0.55,0 -0.55,0 -1.29,0.27 -2.95,0.55 -4.51,0.55 -1.11,0 -2.12,0 -3.22,0.27 -0.46,0 -1.29,0 -1.84,0 -1.84,0 -3.41,0 -5.06,-0.27 -1.02,0 -2.12,-0.28 -3.13,-0.28 -0.55,0 -1.38,-0.27 -1.93,-0.27 -1.57,-0.28 -3.13,-0.56 -4.51,-1.02 0,0 -0.28,0 -0.28,0 -6.35,-1.65 -12.7,-4.32 -18.03,-8 0,0 -0.28,-0.28 -0.28,-0.28 -1.1,-0.83 -2.39,-1.56 -3.5,-2.67 -0.27,-0.27 -0.46,-0.55 -0.73,-0.82 -0.83,-0.74 -1.66,-1.57 -2.67,-2.4 -0.55,-0.46 -1.1,-1.01 -1.66,-1.56 -0.46,-0.55 -1.01,-1.29 -1.56,-1.84 -0.83,-0.83 -1.29,-1.57 -2.12,-2.39 -0.27,-0.55 -0.55,-0.83 -1.1,-1.38 -0.74,-1.02 -1.57,-2.4 -2.39,-3.68 0,-0.28 -0.19,-0.28 -0.19,-0.56 -4.6,-8.19 -7.17,-18.03 -7.17,-29.71l0 -42.61c0,0 0,0 0,0l0 -103.69c0,-1.29 -0.56,-2.39 -1.11,-3.13 -0.83,-0.82 -1.84,-1.38 -3.5,-1.38l-32.66 0c0,0 0,0 -0.27,0 -2.67,0 -4.24,1.94 -4.24,4.51l0 103.69c0,0 0,0 0,0l0 42.33c0,1.29 0,2.67 0,3.96 0,0.27 0,0.27 0,0.55 0.56,16.74 4.24,31.37 10.4,43.61 0.18,0.28 0.18,0.55 0.46,0.74 0.55,1.1 1.1,2.2 1.66,3.22 0.27,0.55 0.55,1.1 1.01,1.56 0.55,0.83 0.83,1.38 1.38,2.21 0.55,0.73 1.01,1.56 1.56,2.39 0.28,0.18 0.56,0.74 0.83,1.01 0.74,1.11 1.29,2.12 2.12,3.22 0,0 0.27,0.28 0.27,0.28 17.03,22.27 42.79,34.78 69.65,37.17 0.74,0 1.84,0 2.67,0.28 0.46,0 1.29,0 1.84,0 1.57,0 2.95,0 4.51,0 30.09,0 60.08,-12.52 78.67,-37.45 0,0 0.27,-0.28 0.27,-0.28 0.83,-1.1 1.57,-2.11 2.12,-3.22 0.28,-0.55 0.55,-0.82 0.83,-1.28 0.55,-0.83 1.01,-1.66 1.56,-2.4 0.55,-0.83 0.83,-1.38 1.38,-2.21 0.28,-0.45 0.56,-1.01 1.02,-1.56 0.55,-1.01 1.1,-2.11 1.65,-3.13 0.19,-0.27 0.19,-0.55 0.46,-0.83 6.17,-12.51 9.85,-26.86 10.4,-43.88 0,-0.28 0,-0.28 0,-0.56 0,-1.28 0,-2.66 0,-3.95l0 -41.77c0,0 0,0 0,0l0 -103.7c-0.55,-2.85 -2.39,-4.51 -5.06,-4.51l0 0z"/>
  <path class="fil0" d="M1455.29 149.7c-3.22,-4.51 -1.93,-9.11 3.4,-11.69 60.36,-32.2 49.69,-128.44 -33.76,-136.17 -4.24,-0.27 -10.13,-0.27 -19.7,-0.27l-65.14 0c-1.01,0 -1.84,0.82 -1.84,1.93l0 236.83c0,2.67 1.84,4.51 4.51,4.51l32.76 0c2.67,0 4.51,-1.84 4.51,-4.51l0 -189.54c0,-5.89 3.68,-10.12 9.84,-10.12l25.21 0c52.35,0 52.91,67.81 0,67.81l-6.35 0c-2.67,0 -4.51,1.84 -4.51,4.51l0 30.27c0,2.67 1.29,5.89 2.67,8l62.2 89.62c1.84,2.39 4.51,3.68 7.18,3.68l40.66 0c2.67,0 3.68,-1.29 2.12,-3.68l-63.76 -91.18 0 0z"/>
  <path class="fil0" d="M1910.63 205.73l-111.14 0 0 -199.66c0,-2.57 -1.84,-4.51 -4.51,-4.51l-32.66 0c-2.67,0 -4.51,1.66 -4.51,4.51l0 204.26 0 9.02 0 20.7c0,2.67 1.84,4.51 4.51,4.51l148.31 0c2.67,0 4.51,-1.84 4.51,-4.51l0 -29.72c0,-2.94 -1.56,-4.6 -4.51,-4.6l0 0z"/>
  <path class="fil0" d="M376.68 1.56l-148.04 0c-2.67,0 -4.51,1.94 -4.51,4.51l0 1.66 0 28.15 0 72.32 0 29.81 0 72.32c0,0 0,0 0,0l0 29.72c0,2.67 1.84,4.51 4.51,4.51l148.32 0c2.66,0 4.5,-1.84 4.5,-4.51l0 -29.72c0,-2.67 -1.84,-4.6 -4.5,-4.6l-111.15 0 0 -63.21 111.15 0c2.66,0 4.5,-1.93 4.5,-4.51l0 -29.81c0,-2.67 -1.84,-4.51 -4.5,-4.51l-111.15 0 0 -63.3 111.15 0c2.66,0 4.5,-1.84 4.5,-4.51l0 -29.81c-0.27,-2.85 -1.84,-4.51 -4.78,-4.51l0 0z"/>
  <path class="fil0" d="M1289.58 1.56l-148.31 0c-2.67,0 -4.51,1.94 -4.51,4.51l0 16.29 0 13.8 0 72.32 0 29.72 0 72.31c0,0 0,0 0,0l0 29.82c0,2.66 1.84,4.5 4.51,4.5l148.31 0c2.67,0 4.6,-1.84 4.6,-4.5l0 -30c0,-2.67 -1.93,-4.6 -4.6,-4.6l-111.05 0 0 -63.21 111.05 0c2.67,0 4.6,-1.93 4.6,-4.51l0 -29.81c0,-2.67 -1.93,-4.51 -4.6,-4.51l-111.05 0 0 -63.3 111.05 0c2.67,0 4.6,-1.84 4.6,-4.51l0 -29.81c0,-2.85 -1.65,-4.51 -4.6,-4.51l0 0z"/>
  <path class="fil0" d="M1709.41 205.73l-111.14 0 0 -63.21 111.14 0c2.67,0 4.51,-1.93 4.51,-4.51l0 -29.81c0,-2.67 -1.56,-4.51 -4.51,-4.51l-111.14 0 0 -63.3 111.14 0c2.67,0 4.51,-1.84 4.51,-4.51l0 -29.81c0,-2.57 -1.56,-4.51 -4.51,-4.51l-148.31 0c-2.67,0 -4.6,1.94 -4.6,4.51l0 16.29 0 13.8 0 72.32 0 29.71 0 72.32c0,0 0,0 0,0l0 29.81c0,2.67 1.93,4.51 4.6,4.51l148.31 0c2.67,0 4.51,-1.84 4.51,-4.51l0 -29.99c0,-2.95 -1.56,-4.6 -4.51,-4.6l0 0z"/>
  <path class="fil1" d="M2020.95 99.46c0,-2.67 1.84,-4.51 4.51,-4.51l148.87 0c2.67,0 4.51,1.84 4.51,4.51l0 29.99c0,2.67 -1.84,4.51 -4.51,4.51l-148.87 0c-2.67,0 -4.51,-1.84 -4.51,-4.51l0 -29.99z"/>
  <path class="fil2" d="M1969.06 34.6l0 -30.09c0,-2.67 1.84,-4.51 4.51,-4.51l65.69 0c2.67,0 4.51,1.84 4.51,4.51l0 30.09c0,2.66 -1.84,4.5 -4.51,4.5l-65.97 0c-2.67,0 -4.23,-1.84 -4.23,-4.5z"/>
  <path class="fil3" d="M1997.77 203.61l115.65 0c2.67,0 4.51,1.84 4.51,4.51l0 30.09c0,2.67 -1.84,4.51 -4.51,4.51l-115.65 0c-2.67,0 -4.51,-1.84 -4.51,-4.51l0 -30.09c0,-2.85 1.84,-4.51 4.51,-4.51z"/>
  <polygon class="fil2" points="1847.89,616.55 1847.89,533.83 1859.29,533.83 1901.07,597.59 1901.07,533.83 1910.91,533.83 1910.91,616.55 1899.5,616.55 1858.01,552.69 1858.01,616.55 "/>
  <polygon class="fil2" points="1785.96,616.55 1785.96,533.83 1831.97,533.83 1831.97,542.57 1797.65,542.57 1797.65,569.16 1826.36,569.16 1826.36,577.99 1797.65,577.99 1797.65,607.71 1834.36,607.71 1834.36,616.55 "/>
  <path class="fil2" d="M1705.92 533.83l11.68 0 0 52.08c0,8.28 1.66,14.35 4.51,18.12 2.95,3.68 8.01,5.52 14.63,5.52 6.72,0 11.23,-1.84 13.89,-5.24 2.67,-3.5 3.96,-9.57 3.96,-18.13l0 -52.63 10.4 0 0 52.36c0,11.22 -2.4,19.41 -6.9,24.75 -4.6,5.06 -11.96,7.72 -22.08,7.72 -10.4,0 -17.85,-2.66 -22.91,-8 -4.79,-5.34 -7.46,-13.53 -7.46,-24.75l0 -51.8 0.28 0 0 0z"/>
  <g id="_1922103281792">
   <path class="fil2" d="M1651.17 609.83c8.47,0 14.91,-2.95 19.69,-9.02 4.79,-6.07 6.9,-14.63 6.9,-25.76 0,-10.67 -2.39,-19.14 -6.9,-25.3 -4.51,-6.08 -11.22,-9.02 -19.14,-9.02 -8.28,0 -14.63,2.94 -19.13,9.02 -4.51,6.16 -6.9,14.63 -6.9,25.3 0,10.86 2.39,19.41 6.9,25.49 4.23,6.16 10.58,9.29 18.58,9.29l0 0zm0 8.83c-11.41,0 -20.7,-4.05 -27.6,-11.96 -6.99,-8.01 -10.4,-18.4 -10.4,-31.65 0,-13.07 3.41,-23.65 10.58,-31.65 7,-8.01 16.57,-11.69 28.25,-11.69 11.69,0 20.98,3.96 28.16,11.69 6.9,8 10.67,18.31 10.67,31.37 0,13.25 -3.5,23.92 -10.67,31.93 -7.46,7.91 -17.03,11.96 -28.99,11.96z"/>
  </g>
  <path class="fil2" d="M1557.05 572.93l3.77 0c14.63,0 21.99,-5.88 21.99,-17.29 0,-8.56 -6.07,-12.79 -18.59,-12.79l-7.45 0 0 30.08 0.28 0zm-11.69 43.62l0 -82.72 25.03 0c7.91,0 14.08,1.84 18.31,5.34 4.23,3.4 6.35,8.46 6.35,15.08 0,10.95 -5.52,18.96 -16.75,23.47l27.7 38.82 -14.36 0 -23.37 -34.87 -10.95 0 0 34.87 -11.96 0 0 0.01z"/>
  <rect class="fil2" x="1491.36" y="569.71" width="28.15" height="8.28"/>
  <polygon class="fil2" points="1427.59,616.55 1427.59,533.83 1473.87,533.83 1473.87,542.57 1439.55,542.57 1439.55,569.16 1468.26,569.16 1468.26,577.99 1439.55,577.99 1439.55,607.71 1476.27,607.71 1476.27,616.55 "/>
  <rect class="fil2" x="1394.65" y="533.83" width="11.69" height="82.72"/>
  <path class="fil2" d="M1320.68 607.71l15.18 0c10.68,0 18.4,-2.94 22.91,-8.74 4.79,-6.16 7.18,-14.35 7.18,-24.75 0,-9.84 -2.39,-17.3 -7.18,-22.82 -2.94,-3.49 -6.44,-5.61 -10.39,-6.99 -3.96,-1.29 -10.13,-1.84 -18.04,-1.84l-9.66 0 0 65.14 0 0zm-11.68 8.84l0 -82.72 27.41 0c8.28,0 14.91,0.83 19.97,2.67 5.06,1.84 9.29,4.78 12.97,9.29 5.89,6.9 8.84,15.92 8.84,27.42 0,13.8 -3.78,24.38 -10.95,31.83 -7.18,7.46 -17.58,11.51 -30.55,11.51l-27.69 0z"/>
  <polygon class="fil2" points="1224.53,616.55 1224.53,533.83 1236.22,533.83 1277.62,597.59 1277.62,533.83 1287.74,533.83 1287.74,616.55 1276.33,616.55 1234.56,552.69 1234.56,616.55 "/>
  <path class="fil2" d="M1200.06 616.55l-9.11 -22.92 -35.06 0 -9.01 22.92 -10.95 0 32.75 -82.72 11.69 0 32.2 82.72 -12.51 0zm-12.51 -31.66l-14.08 -35.69 -14.08 35.69 28.15 0 0.01 0z"/>
  <polygon class="fil2" points="1047.14,616.55 1047.14,533.83 1063.43,533.83 1086.24,597.87 1109.89,533.83 1124.24,533.83 1124.24,616.55 1113.39,616.55 1113.39,549.2 1090.75,610.93 1079.34,610.93 1057.26,549.2 1057.26,616.55 "/>
  <path class="fil2" d="M986.32 572.93l3.68 0c14.63,0 22.09,-5.88 22.09,-17.29 0,-8.56 -6.17,-12.79 -18.59,-12.79l-7.45 0 0 30.08 0.27 0 0 0zm-11.5 43.62l0 -82.72 25.03 0c8,0 14.08,1.84 18.31,5.34 4.32,3.4 6.44,8.46 6.44,15.08 0,10.95 -5.61,18.96 -16.75,23.47l27.61 38.82 -14.36 0 -23.37 -35.14 -10.95 0 0 35.14 -11.96 0 0 0.01z"/>
  <g id="_1923673840416">
   <path class="fil2" d="M919.34 609.83c8.47,0 14.82,-2.95 19.6,-9.02 4.51,-6.07 6.9,-14.63 6.9,-25.76 0,-10.67 -2.39,-19.14 -6.9,-25.3 -4.51,-6.08 -11.13,-9.02 -19.14,-9.02 -8.19,0 -14.63,2.94 -19.14,9.02 -4.5,6.16 -6.9,14.63 -6.9,25.3 0,10.86 2.4,19.41 6.9,25.49 4.24,6.16 10.68,9.29 18.68,9.29l0 0zm0 8.83c-11.5,0 -20.79,-4.05 -27.69,-11.96 -6.9,-8.01 -10.4,-18.4 -10.4,-31.65 0,-13.07 3.5,-23.65 10.67,-31.65 6.9,-8.01 16.47,-11.69 28.16,-11.69 11.68,0 20.98,3.96 28.15,11.69 6.99,8 10.68,18.31 10.68,31.37 0,13.25 -3.5,23.92 -10.68,31.93 -7.36,7.91 -16.93,11.96 -28.89,11.96z"/>
  </g>
  <polygon class="fil2" points="801.48,616.55 801.48,533.83 812.98,533.83 854.48,597.59 854.48,533.83 864.51,533.83 864.51,616.55 853.1,616.55 811.32,552.69 811.32,616.55 "/>
  <path class="fil2" d="M298.84 635.87l0 27.69c0,25.03 -21.07,45.45 -46.83,45.45l-232.87 0 0 -271.42 279.7 0 0 36.71 18.86 0 0 -36.71 0 -18.31 -18.86 0 -279.7 0 -19.14 0 0 308.32 252.01 0c36.43,0 65.97,-28.71 65.97,-63.76l0 -27.97 -19.14 0 0 0z"/>
  <path class="fil2" d="M731.37 529.04c-2.39,-0.82 -5.34,-1.56 -8.28,-1.83l-8.19 -0.56c-5.33,0 -10.12,0.56 -14.63,1.57 -4.32,1.1 -8.28,2.39 -11.68,4.05l-1.38 0.45 0 85.94 18.86 0 0 -74.25c2.94,-1.01 6.16,-1.56 9.57,-1.56 4.23,0 8,0.82 11.41,2.11l2.39 1.11 3.5 -16.47 -1.57 -0.56z"/>
  <g id="_1922099364832">
   <path class="fil2" d="M663.84 538.06c-4.51,-8 -12.52,-12.24 -23.37,-12.24 -9.57,0 -17.58,4.05 -23.47,11.97 -5.52,7.72 -8.46,19.96 -8.46,36.15 0,6.63 0.55,13.07 1.56,18.59 1.11,5.61 3.22,10.67 5.89,14.91 2.95,4.23 6.63,7.45 11.14,9.84 4.5,2.39 10.12,3.5 16.74,3.5 5.06,0 9.29,-0.56 13.07,-1.84 3.68,-1.11 6.34,-2.4 7.91,-3.5l1.38 -0.83 -3.77 -15.64 -2.67 1.29 -5.52 2.39c-2.39,0.83 -5.34,1.38 -8.28,1.38 -3.41,0 -6.35,-0.55 -8.74,-1.93l-5.34 -5.25c-1.29,-2.39 -2.39,-5.06 -2.94,-8.28 -0.46,-2.67 -0.74,-5.61 -1.02,-8.74l41.96 0 0.28 -1.84 0.27 -4.05 0 -3.68c-0.27,-13.8 -2.39,-24.47 -6.62,-32.2l0 0 0 0zm-23.37 4.24c3.95,0 6.34,1.93 7.63,5.61 1.66,3.95 2.12,9.29 2.4,15.91l-22.27 0c0.46,-6.34 1.56,-11.96 3.68,-15.91 1.84,-3.68 4.51,-5.61 8.56,-5.61l0 0z"/>
  </g>
  <path class="fil2" d="M598.97 599.71l-2.39 1.38 -5.34 2.11 -6.07 0.83c-3.22,0 -5.61,-0.83 -7.45,-2.11l-4.79 -5.89c-1.38,-2.67 -2.11,-5.89 -2.67,-9.57 -0.55,-3.96 -0.82,-8.28 -0.82,-12.79 0,-10.86 1.38,-18.86 3.95,-23.92 2.39,-4.51 6.17,-6.9 11.5,-6.9 3.96,0 7.46,1.1 10.31,2.94l2.39 1.57 5.06 -15.92 -1.56 -0.83 -7.73 -3.13c-2.95,-0.83 -6.08,-1.38 -9.57,-1.38 -11.69,0 -20.43,4.51 -26.04,13.07 -5.61,8.46 -8.55,19.87 -8.55,34.5 0,6.72 0.55,12.79 1.65,18.4 1.01,5.52 2.95,10.58 5.8,14.81 2.67,4.33 6.44,7.73 10.67,10.12 4.51,2.4 9.85,3.78 16.47,3.78 3.77,0 7.18,-0.56 10.4,-1.66 3.13,-1.01 5.79,-2.12 7.73,-3.4l1.28 -0.83 -4.23 -15.18z"/>
  <path class="fil2" d="M531.44 546.62c-1.57,-5.06 -3.77,-9.11 -6.35,-11.96 -2.95,-2.95 -6.16,-5.34 -10.12,-6.44 -7.18,-2.4 -16.01,-2.4 -26.31,-0.55 -5.06,0.82 -9.57,1.93 -13.9,3.22l-1.56 0.55 0 87.5 18.86 0 0 -74.53c3.22,-0.74 6.16,-1.01 8.83,-1.01 5.25,0 9.02,1.56 10.58,4.78 2.12,3.68 3.22,9.57 3.22,17.76l0 53.18 18.86 0 0 -54.19c0.28,-7.45 -0.55,-13.53 -2.11,-18.31l0 0z"/>
  <g id="_1922099359456">
   <path class="fil2" d="M443.94 533.83c-5.25,-5.06 -12.52,-7.73 -20.7,-7.73 -3.96,0 -7.73,0.28 -11.14,1.11 -3.49,0.73 -6.71,1.56 -9.57,2.85l-1.93 0.83 4.05 16.19 2.39 -1.01 6.9 -2.12 6.9 -0.83c3.96,0 7.18,1.11 9.3,3.22 2.11,2.12 3.22,6.08 3.22,11.69l0 5.33c-3.78,-0.55 -6.9,-0.82 -10.13,-0.82 -4.23,0 -8.28,0.55 -11.68,1.84 -3.77,1.38 -6.9,3.22 -9.57,5.61 -2.67,2.39 -4.78,5.61 -6.44,9.02 -1.56,3.49 -2.39,7.72 -2.39,12.51 0,5.06 0.83,9.57 2.67,12.97 1.65,3.77 4.05,6.72 6.9,9.11 2.94,2.39 6.44,4.23 10.12,5.34 3.77,1.01 7.73,1.56 11.96,1.56 4.23,0 8.56,-0.28 12.79,-1.1 4.23,-0.46 8.46,-1.57 12.79,-2.67l1.56 -0.28 0 -58.7c0.28,-10.95 -2.67,-18.86 -8,-23.92l0 0 0 0zm-18.31 70.2c-4.23,0 -7.73,-1.1 -10.12,-2.94 -2.12,-1.84 -3.41,-5.34 -3.41,-9.57l1.02 -6.63 2.66 -3.77 4.24 -2.11 5.61 -0.83 7.73 0.83 0 23.92c-2.67,0.83 -5.34,1.1 -7.73,1.1l0 0z"/>
  </g>
  <path class="fil2" d="M384.13 599.71l-2.39 1.38 -5.34 2.11 -6.07 0.83c-3.22,0 -5.61,-0.83 -7.45,-2.11l-4.79 -5.89c-1.28,-2.67 -2.11,-5.89 -2.67,-9.57 -0.55,-3.96 -0.82,-8.28 -0.82,-12.79 0,-10.86 1.38,-18.86 4.05,-23.92 2.39,-4.51 6.07,-6.9 11.4,-6.9 3.96,0 7.18,1.1 10.4,2.94l2.39 1.57 5.06 -15.92 -1.65 -0.83 -7.73 -3.13c-2.85,-0.83 -5.8,-1.38 -9.57,-1.38 -11.69,0 -20.43,4.51 -26.04,13.07 -5.52,8.46 -8.46,19.87 -8.46,34.5 0,6.72 0.55,12.79 1.56,18.4 1.11,5.52 2.95,10.58 5.89,14.81 2.67,4.33 6.35,7.73 10.58,10.12 4.51,2.4 9.84,3.78 16.29,3.78 3.68,0 7.17,-0.56 10.3,-1.66 3.22,-1.01 5.89,-2.12 7.73,-3.4l1.38 -0.83 -4.05 -15.18 0 0z"/>
  <path class="fil2" d="M317.98 491.51l0 19.69 -18.86 0 0 -19.69 18.86 0zm0 36.71l0 90.44 -18.86 0 0 -90.44 18.86 0z"/>
  <path class="fil2" d="M275.66 546.62c-1.57,-5.06 -3.69,-9.11 -6.35,-11.96 -2.95,-2.95 -6.17,-5.34 -10.12,-6.44 -7.18,-2.4 -15.92,-2.4 -26.32,-0.55 -4.78,0.82 -9.57,1.93 -13.8,3.22l-1.56 0.55 0 87.5 18.86 0 0 -74.53c3.13,-0.74 6.07,-1.01 8.74,-1.01 5.33,0 9.02,1.56 10.67,4.78 2.12,3.68 3.13,9.57 3.13,17.76l0 53.18 18.86 0 0 -54.19c0.28,-7.45 -0.46,-13.53 -2.11,-18.31l0 0z"/>
  <path class="fil2" d="M176.56 528.22l0 74.71 -3.49 0.55 -5.34 0.28c-4.78,0 -7.91,-1.38 -10.3,-4.24 -2.4,-3.22 -3.5,-8.55 -3.5,-16.56l0 -54.74 -18.86 0 0 55.29c0,7.18 0.73,13.07 2.39,17.85 1.56,4.79 3.68,8.74 6.9,11.69 2.94,2.94 6.62,5.06 10.67,6.07 3.96,1.11 8.47,1.66 13.25,1.66l6.63 -0.55 7.17 -1.11 6.63 -1.29 5.61 -1.56 1.38 -0.55 0 -87.5 -19.14 0 0 0z"/>
  <rect class="fil2" x="413.67" y="419.74" width="1500.74" height="17.02"/>
 </g>
</svg>
